<?xml version="1.0" encoding="UTF-8"?>
<svg xmlns="http://www.w3.org/2000/svg" viewBox="0 0 5280.000000 3264.000000" width="660" height="408">
<g transform="translate(0.000000,3264.000000) scale(0.010000,-0.010000)"
fill="#000000" stroke="none">
<path d="M22522 174973 c-214 -227 -214 -227 -227 -25254 -14 -27419 -56
-25409 535 -25598 121 -39 7480 -49 16354 -21 19006 59 16645 -279 16597 2372
-31 1746 -31 1746 -313 1988 -282 242 -282 242 -14276 238 -14170 -4 -14293
-1 -14433 363 -35 92 -62 10400 -60 22907 3 22739 3 22739 -243 22986 -371
370 -3590 385 -3934 19z M201900 170294 c-962 -31 -1760 -65 -1772 -75 -387
-327 -495 -3290 -137 -3733 191 -236 191 -236 10725 -295 12693 -71 13239
-108 15534 -1072 385 -162 948 -350 1250 -417 503 -113 892 -308 2500 -1253
303 -178 703 -402 890 -497 188 -95 750 -565 1250 -1043 501 -479 1090 -1013
1310 -1188 381 -303 683 -685 1513 -1916 203 -299 507 -727 678 -951 170 -224
480 -789 689 -1256 208 -466 530 -1140 714 -1498 185 -357 389 -920 455 -1250
66 -330 255 -937 421 -1350 415 -1037 578 -3683 448 -7250 -64 -1731 -76
-1798 -714 -4100 -391 -1412 -1557 -4022 -2054 -4600 -94 -110 -517 -703 -938
-1317 -422 -615 -808 -1133 -858 -1150 -50 -18 -510 -440 -1022 -936 -1440
-1396 -4002 -3036 -5381 -3445 -412 -122 -916 -308 -1121 -412 -206 -105 -589
-232 -852 -283 -3507 -675 -4496 -727 -13198 -689 -5427 23 -7552 64 -7633
145 -251 251 -291 1936 -294 12493 -3 12428 71 11325 -778 11524 -300 70
-2146 89 -3055 31 -98 -6 -290 -121 -425 -256 -245 -246 -245 -246 -245
-13905 0 -14634 -16 -14157 474 -14280 445 -113 20406 -16 21276 103 495 67
1643 195 2550 283 1209 118 1837 228 2350 415 385 139 1281 406 1991 591 710
185 1453 435 1650 554 197 119 854 494 1459 834 2710 1523 2456 1340 4478
3227 782 731 1647 1643 1922 2028 275 385 669 905 876 1155 207 251 450 598
540 773 89 174 264 440 389 589 126 150 282 437 348 637 66 201 434 978 817
1728 572 1119 730 1534 880 2319 101 526 274 1133 385 1350 205 400 455 1666
562 2844 32 358 130 1325 217 2150 144 1373 144 1605 -3 2734 -89 679 -161
1515 -161 1858 0 865 -263 2348 -597 3358 -154 468 -333 1143 -397 1500 -143
797 -2227 5064 -2796 5724 -202 234 -636 804 -964 1265 -801 1127 -3749 3855
-4671 4322 -234 119 -605 338 -825 488 -1334 907 -3026 1670 -4550 2050 -357
89 -1084 314 -1615 501 -661 232 -1291 371 -2000 442 -4178 417 -4081 414
-12485 436 -4537 12 -9037 -3 -10000 -34z M135375 169923 c-225 -239 -225
-239 -256 -22556 -23 -16066 -1 -22422 79 -22692 189 -645 356 -693 2293 -657
1672 31 1710 37 1958 285 253 254 253 254 256 19208 2 16803 19 18979 154
19172 318 453 480 329 2191 -1677 440 -515 1178 -1358 1641 -1872 462 -514
909 -1036 991 -1159 83 -124 296 -382 473 -575 1162 -1262 2555 -2823 2886
-3236 215 -267 687 -809 1050 -1205 362 -395 997 -1116 1409 -1603 413 -486
1246 -1429 1853 -2095 606 -666 1371 -1548 1699 -1961 328 -412 800 -953 1048
-1201 247 -248 743 -808 1100 -1244 358 -437 946 -1112 1307 -1500 362 -388
1056 -1177 1543 -1755 487 -577 1159 -1345 1493 -1706 334 -361 1260 -1412
2057 -2336 798 -923 1859 -2136 2359 -2694 501 -558 1041 -1196 1200 -1418
160 -222 960 -1130 1777 -2018 817 -888 1557 -1719 1644 -1846 86 -128 566
-682 1066 -1232 500 -550 1170 -1347 1489 -1772 623 -827 2160 -2344 2505
-2473 321 -118 3365 -112 3741 9 203 64 368 202 425 352 58 151 94 8955 94
22679 0 25205 80 22765 -750 22958 -802 185 -3199 121 -3464 -94 -236 -191
-236 -191 -259 -19162 -17 -14074 -52 -19007 -137 -19109 -194 -234 -474 -155
-842 237 -1117 1190 -3313 3676 -4025 4554 -454 562 -909 1089 -1011 1171
-197 159 -868 910 -1612 1801 -247 297 -896 1014 -1440 1594 -545 580 -1259
1391 -1588 1802 -328 411 -970 1153 -1426 1650 -456 497 -972 1083 -1146 1302
-174 219 -819 946 -1433 1615 -614 669 -1409 1565 -1767 1991 -998 1190 -2335
2725 -3000 3445 -857 928 -2938 3292 -3687 4188 -350 419 -1183 1354 -1850
2077 -667 723 -1438 1582 -1713 1909 -275 327 -860 1001 -1300 1498 -440 498
-996 1146 -1236 1441 -240 295 -950 1100 -1578 1787 -2244 2456 -2516 2758
-3020 3362 -823 985 -750 961 -3033 982 -1973 18 -1985 17 -2208 -221z
M325627 170047 c-171 -72 -360 -221 -419 -332 -76 -142 -108 -4130 -108
-13328 0 -13828 -11 -13374 444 -17918 27 -272 176 -705 343 -1000 162 -285
440 -958 617 -1495 177 -537 462 -1195 634 -1463 172 -267 447 -697 612 -955
1325 -2070 3534 -4333 5187 -5312 447 -265 1071 -650 1387 -855 3160 -2052
8575 -3389 13726 -3388 1263 0 4366 235 4542 344 48 30 633 146 1299 257 666
112 1694 355 2285 539 591 184 1232 367 1424 407 193 39 575 195 850 347 275
151 680 333 900 404 543 175 1731 793 2700 1405 440 277 1036 642 1324 809
287 167 1183 942 1991 1721 1317 1271 1823 1881 2576 3105 105 171 360 536
566 811 206 275 428 702 494 948 117 439 524 1474 1116 2834 559 1285 616
2884 652 18118 23 9997 2 13371 -86 13587 -191 468 -582 563 -2308 563 -1714
0 -1925 -66 -2024 -628 -31 -177 -70 -6532 -87 -14122 -31 -13800 -31 -13800
-294 -15050 -344 -1638 -431 -1926 -818 -2700 -178 -357 -381 -830 -449 -1050
-239 -766 -1915 -3006 -2653 -3546 -110 -81 -470 -411 -800 -734 -330 -323
-802 -702 -1050 -842 -247 -139 -675 -398 -950 -575 -1256 -806 -1576 -975
-2365 -1241 -464 -157 -990 -361 -1171 -455 -180 -93 -779 -255 -1332 -360
-553 -106 -1416 -303 -1919 -438 -2146 -577 -6794 -580 -9013 -6 -550 143
-1315 320 -1700 394 -385 74 -1082 280 -1550 457 -467 177 -1097 410 -1398
518 -600 215 -2785 1505 -3502 2069 -1857 1459 -3461 3372 -4012 4783 -155
399 -349 826 -429 950 -306 472 -756 1970 -924 3076 -158 1043 -177 2434 -205
14900 -17 7563 -54 13850 -82 13972 -128 564 -348 629 -2098 617 -1080 -7
-1714 -54 -1923 -142z M432700 170090 c-2188 -101 -2734 -186 -4429 -695
-4227 -1267 -7490 -4278 -8486 -7832 -106 -378 -257 -813 -337 -966 -230 -445
-380 -2111 -319 -3542 59 -1394 652 -3865 1067 -4450 100 -140 320 -547 490
-905 1002 -2114 4423 -4916 6714 -5500 248 -63 743 -218 1100 -344 358 -126
1033 -282 1500 -347 468 -65 985 -144 1150 -177 165 -32 4193 -89 8950 -127
8329 -67 8678 -77 9400 -277 413 -114 1065 -240 1450 -281 887 -93 1724 -512
3765 -1885 398 -268 1555 -1836 2142 -2905 379 -690 425 -908 605 -2910 173
-1916 -522 -3789 -2136 -5756 -610 -744 -2624 -2041 -3476 -2239 -3678 -854
-2417 -792 -16750 -820 -7177 -14 -13143 -27 -13256 -29 -553 -8 -644 -284
-644 -1949 0 -1733 15 -1805 407 -2008 452 -233 24768 -221 27393 14 2918 262
4522 679 6600 1716 2026 1011 4507 3503 5250 5274 115 275 332 736 482 1025
865 1671 867 7101 3 8767 -140 271 -312 681 -381 912 -474 1573 -3640 4770
-5459 5512 -306 124 -756 338 -1002 475 -245 138 -828 339 -1295 449 -466 109
-1050 273 -1298 364 -898 331 -6107 514 -15224 537 -3448 8 -3753 24 -4950
251 -702 133 -1573 271 -1937 307 -710 69 -788 108 -2720 1363 -753 490 -1077
767 -1243 1062 -123 220 -300 462 -392 538 -824 676 -1834 3361 -1834 4875 0
422 455 2746 607 3104 352 825 1830 2826 2278 3086 260 150 651 399 869 552
847 597 1715 1049 2146 1117 248 39 990 190 1650 334 1200 263 1200 263 14822
316 16057 64 14045 -204 14065 1868 15 1596 -82 1962 -561 2130 -364 126
-24009 123 -26776 -4z M91726 169997 c-308 -123 -593 -624 -674 -1182 -37
-256 -200 -702 -361 -992 -162 -289 -364 -825 -449 -1190 -84 -365 -236 -825
-336 -1023 -210 -413 -1055 -2536 -1158 -2910 -38 -137 -216 -542 -395 -900
-180 -357 -379 -897 -443 -1200 -64 -302 -271 -887 -460 -1300 -188 -412 -549
-1310 -801 -1995 -252 -684 -608 -1584 -790 -2000 -182 -415 -409 -1025 -504
-1355 -95 -330 -265 -751 -378 -935 -113 -184 -267 -630 -343 -991 -76 -361
-224 -795 -328 -965 -105 -170 -348 -736 -540 -1259 -624 -1700 -947 -2507
-1057 -2639 -59 -71 -262 -576 -450 -1120 -848 -2451 -1841 -5091 -2196 -5841
-144 -302 -261 -614 -262 -692 -1 -78 -135 -379 -298 -669 -164 -290 -364
-843 -444 -1230 -81 -386 -258 -895 -395 -1131 -136 -235 -301 -630 -365 -878
-65 -247 -253 -765 -418 -1150 -165 -385 -402 -992 -527 -1350 -125 -357 -439
-1145 -698 -1750 -441 -1029 -754 -1870 -1472 -3949 -161 -467 -399 -1030
-528 -1250 -349 -598 -567 -1410 -455 -1703 128 -337 327 -366 2325 -330 2234
41 2556 222 2766 1561 56 357 226 855 393 1150 163 287 367 814 454 1171 87
358 289 943 448 1300 427 960 702 1654 1011 2554 153 442 396 1037 540 1323
145 285 313 756 373 1046 61 290 219 730 352 977 132 248 371 810 529 1250
612 1694 908 2457 1099 2833 110 215 252 610 317 879 64 268 262 758 440 1088
178 330 400 915 494 1300 94 385 275 880 403 1100 128 220 331 732 452 1137
295 995 760 2151 1123 2792 165 291 361 823 436 1182 75 359 227 800 338 979
111 179 332 705 491 1168 549 1599 1086 3045 1240 3343 85 165 207 502 272
749 65 248 234 620 376 827 253 371 527 1215 527 1623 0 114 152 442 337 730
202 313 387 773 459 1143 67 340 269 913 449 1272 180 360 448 1023 597 1472
429 1302 721 1368 1248 283 378 -775 900 -2117 1254 -3222 128 -396 329 -885
448 -1086 118 -201 308 -709 421 -1129 113 -419 318 -957 455 -1195 137 -238
338 -755 447 -1150 108 -395 258 -812 333 -927 176 -272 1005 -2304 1097
-2689 39 -164 243 -704 453 -1200 211 -496 433 -1104 495 -1352 61 -247 245
-742 407 -1100 162 -357 502 -1190 754 -1850 252 -660 609 -1560 794 -2000
184 -440 401 -1056 482 -1369 82 -313 237 -696 345 -850 215 -307 371 -761
475 -1381 36 -220 196 -647 355 -950 354 -673 732 -1591 1093 -2650 150 -440
363 -980 475 -1200 111 -220 235 -557 275 -750 40 -192 242 -710 448 -1150
206 -440 433 -1047 503 -1350 70 -302 196 -685 280 -850 380 -747 1058 -2359
1240 -2950 110 -357 331 -949 490 -1314 158 -365 338 -895 399 -1178 120 -561
456 -1033 899 -1262 422 -218 3557 -210 3871 10 356 249 305 926 -127 1698
-191 343 -398 865 -460 1160 -61 295 -215 718 -343 940 -127 222 -307 694
-399 1050 -91 355 -343 1002 -558 1437 -215 435 -391 853 -391 928 0 76 -107
350 -239 609 -131 260 -333 787 -448 1172 -116 385 -302 850 -415 1033 -112
183 -274 633 -358 1000 -85 367 -267 870 -406 1117 -139 248 -378 810 -531
1250 -378 1088 -746 2044 -1158 3011 -190 446 -345 874 -345 953 0 78 -154
463 -342 855 -188 393 -415 998 -504 1346 -89 347 -248 778 -354 957 -105 178
-260 555 -343 837 -84 282 -265 744 -403 1027 -286 586 -821 1982 -1155 3014
-125 385 -310 818 -411 963 -101 144 -276 662 -389 1150 -118 510 -331 1091
-502 1368 -163 265 -324 602 -357 750 -34 148 -189 562 -345 919 -600 1379
-1017 2473 -1158 3037 -81 323 -296 885 -479 1250 -183 365 -383 901 -445
1191 -62 291 -203 706 -314 924 -355 696 -1074 2433 -1198 2895 -67 247 -252
708 -412 1025 -161 318 -362 882 -447 1253 -85 371 -280 900 -433 1175 -153
275 -373 817 -490 1204 -220 732 -470 1057 -951 1239 -342 130 -3821 133
-4142 4z M265599 169825 c-305 -275 -305 -275 -305 -22651 0 -15245 33 -22438
104 -22570 243 -454 457 -504 2170 -504 1794 0 1937 48 2066 697 31 155 60
4652 64 9992 6 9761 19 10109 372 10291 203 105 26257 161 27109 59 1074 -128
964 1006 1021 -10527 50 -10107 50 -10107 273 -10330 215 -215 282 -222 1837
-195 1720 30 2003 92 2180 482 83 180 115 6273 119 22613 6 22366 6 22366
-303 22642 -309 276 -309 276 -1949 276 -2435 0 -2157 1355 -2157 -10502 0
-9887 0 -9887 -241 -10167 -242 -281 -242 -281 -13775 -306 -7444 -14 -13680
-1 -13859 29 -660 111 -627 -421 -652 10537 -23 9893 -23 9893 -265 10151
-390 414 -3346 401 -3809 -17z M393231 169859 c-281 -242 -281 -242 -281
-22759 0 -22517 0 -22517 281 -22759 391 -337 3679 -377 4083 -50 236 191 236
191 286 22525 28 12284 15 22479 -29 22656 -142 580 -316 628 -2288 628 -1729
0 -1779 -6 -2052 -241z M91375 147102 c-155 -122 -318 -391 -383 -632 -62
-230 -193 -577 -292 -769 -98 -193 -296 -701 -439 -1128 -521 -1553 -690
-1486 3788 -1486 3700 0 3732 3 3955 421 185 346 -1079 3365 -1504 3592 -128
69 -927 103 -2176 94 -1086 -7 -2133 16 -2327 53 -276 52 -411 21 -622 -145z
M90138 111256 c-1202 -523 -532 -2529 689 -2065 811 308 886 1747 109 2071
-396 166 -404 166 -798 -6z M273936 111183 c-515 -250 -602 -1232 -149 -1686
791 -791 1797 -262 1680 884 -80 786 -792 1160 -1531 802z M416880 110995
c-678 -678 90 -2049 1031 -1843 661 146 952 1394 444 1903 -376 375 -1068 347
-1475 -60z M188135 110944 c-334 -334 -320 -862 28 -1137 228 -179 403 -207
1289 -207 1666 0 1493 797 1525 -7026 27 -6643 27 -6643 252 -6854 266 -250
3361 -360 3897 -138 382 158 537 524 381 901 -168 406 -484 517 -1468 517
-812 0 -1200 97 -1362 340 -41 60 -75 3022 -75 6580 -2 4593 -35 6543 -115
6719 -172 376 -488 442 -2377 493 -1722 46 -1743 44 -1975 -188z M208856
111047 c-282 -140 -476 -581 -397 -898 114 -453 465 -594 1418 -567 971 27
1182 -19 1327 -289 68 -128 103 -2336 101 -6511 -4 -6591 19 -6978 423 -7200
341 -187 3728 -134 4029 63 332 218 412 715 168 1042 -186 250 -247 264 -1185
288 -1148 29 -1369 68 -1583 282 -139 140 -157 892 -157 6745 0 8026 283 7106
-2195 7131 -1031 10 -1826 -25 -1949 -86z M453670 110975 c-220 -225 -220
-225 -220 -7659 0 -7433 0 -7433 281 -7675 375 -323 719 -306 1077 51 327 328
308 176 330 2659 14 1512 38 1740 219 2050 470 806 1099 731 1796 -215 584
-794 1258 -1595 2093 -2490 387 -415 948 -1039 1245 -1387 884 -1033 2209
-1290 2209 -428 0 358 -118 520 -1546 2110 -2261 2517 -3292 3757 -3395 4080
-112 354 159 721 1200 1629 2983 2602 3144 2783 2784 3143 -596 596 -1874
-228 -4839 -3122 -1860 -1815 -1822 -1873 -1799 2772 9 2011 12 3762 6 3890
-31 650 -995 1046 -1441 592z M371892 110914 c-242 -196 -242 -196 -242 -7564
0 -7367 0 -7367 281 -7609 389 -335 888 -325 1162 22 201 256 207 372 207
3954 0 4367 -15 4298 1144 5125 1937 1382 3502 1207 4203 -469 128 -308 153
-990 153 -4255 0 -2509 38 -3997 107 -4196 200 -574 1085 -607 1356 -51 126
260 146 7732 23 8629 -183 1329 -627 1955 -1752 2470 -1236 566 -2977 275
-4071 -681 -1055 -922 -1134 -786 -1149 1987 -11 2049 -30 2298 -198 2524
-249 335 -879 393 -1224 114z M149572 110025 c-276 -306 -385 -739 -318 -1275
148 -1178 -241 -1750 -1189 -1750 -762 0 -965 -161 -965 -767 0 -582 212 -733
1033 -733 534 0 707 -40 867 -200 231 -231 226 -144 208 -3800 -24 -4611 170
-5285 1742 -6054 1552 -760 5111 229 4481 1244 -240 387 -595 442 -1420 219
-1342 -362 -2376 -198 -2701 429 -471 909 -510 1258 -510 4562 0 3909 -197
3543 1924 3566 1459 16 1511 24 1753 266 304 303 251 659 -153 1033 -261 243
-300 248 -1593 217 -1800 -43 -1859 7 -1931 1679 -46 1065 -69 1172 -286 1348
-295 239 -733 246 -942 16z M251731 109959 c-271 -233 -282 -283 -331 -1397
-61 -1399 -109 -1472 -1051 -1569 -779 -81 -1049 -276 -1049 -758 0 -524 284
-735 987 -735 1146 0 1113 111 1115 -3682 3 -4977 130 -5505 1485 -6193 813
-413 866 -425 1800 -425 2082 0 3597 916 2813 1700 -250 250 -484 250 -1284
-1 -1096 -344 -2077 -241 -2533 266 -658 729 -777 1973 -694 7210 17 1109 45
1125 1966 1125 1533 0 1558 4 1809 255 294 294 264 642 -90 1021 -201 215
-276 225 -1625 212 -1962 -19 -2009 21 -2073 1750 -34 933 -52 1001 -312 1225
-349 300 -581 299 -933 -4z M313072 110025 c-276 -305 -372 -714 -372 -1577 0
-1295 -227 -1554 -1322 -1515 -580 21 -911 -249 -911 -743 0 -498 314 -690
1125 -690 1136 0 1050 320 1109 -4117 50 -3833 50 -3833 330 -4433 785 -1686
2439 -2183 4826 -1448 1340 413 1695 846 1143 1398 -243 243 -242 243 -1300 0
-1040 -238 -1621 -249 -2232 -41 -979 334 -1071 784 -1040 5125 27 3846 -149
3516 1870 3516 1636 0 1902 113 1902 804 0 573 -192 644 -1800 658 -742 7
-1405 18 -1473 25 -297 31 -449 517 -519 1658 -55 907 -108 1190 -254 1351
-236 260 -857 277 -1082 29z M355850 107291 c-646 -126 -1699 -468 -2168 -703
-1202 -603 -2582 -2316 -2582 -3205 0 -262 -77 -691 -172 -955 -409 -1139 -34
-3511 739 -4664 959 -1433 1225 -1644 2819 -2242 1717 -644 4302 -450 5138
386 720 721 -255 1403 -1351 945 -1511 -631 -3658 -64 -4698 1242 -802 1006
-1275 3006 -940 3967 75 214 167 635 206 938 211 1637 2038 2901 3994 2764
505 -36 1075 -110 1266 -164 1224 -351 1988 290 1275 1070 -382 417 -2583 805
-3526 621z M110375 107191 c-504 -118 -1293 -526 -1696 -876 -768 -667 -1086
-647 -1328 81 -169 511 -285 604 -752 604 -315 0 -568 -204 -707 -572 -128
-336 -118 -9879 10 -10342 184 -662 805 -888 1241 -452 257 257 257 257 257
4009 0 4378 -4 4353 835 4868 283 173 658 440 832 592 955 834 2559 898 3254
129 605 -669 627 -844 650 -5219 19 -3452 44 -4071 177 -4273 345 -528 1097
-379 1325 263 91 255 120 1417 110 4397 -13 3936 -19 4071 -245 4803 -488
1580 -2153 2415 -3963 1988z M129142 107008 c-1067 -376 -1364 -538 -1785
-971 -1132 -1166 -1144 -2701 -30 -3979 333 -382 2070 -1091 3773 -1539 1251
-329 2200 -1137 2200 -1873 0 -394 -520 -1203 -964 -1501 -802 -537 -3198
-712 -4158 -303 -753 320 -1378 85 -1378 -520 0 -633 541 -927 2086 -1133
2008 -267 4094 268 5087 1305 1726 1803 910 4532 -1584 5296 -3545 1086 -3813
1205 -4122 1836 -355 725 54 1413 1131 1905 893 407 2442 493 3141 174 247
-113 580 -205 738 -205 600 0 964 851 531 1242 -688 623 -3238 768 -4666 266z
M169835 106910 c-1498 -426 -1791 -582 -1883 -1001 -157 -716 325 -1005 1121
-672 917 385 2487 674 3013 556 1319 -298 2089 -1156 2186 -2437 71 -939 -95
-1099 -1245 -1201 -4285 -379 -5776 -1349 -5776 -3755 0 -1786 963 -2905 2747
-3192 1065 -171 2159 165 3352 1030 668 484 906 476 1112 -40 296 -737 963
-1019 1417 -596 216 201 216 201 170 4257 -49 4368 -55 4428 -626 5613 -830
1724 -2803 2232 -5588 1438z m4202 -6217 c311 -246 387 -1466 122 -1973 -365
-699 -1803 -1656 -2741 -1824 -2108 -377 -3314 1547 -1859 2967 589 575 662
599 2641 866 1468 198 1541 196 1837 -36z M232000 107142 c-247 -80 -849 -254
-1336 -386 -989 -270 -1364 -537 -1364 -973 0 -580 594 -847 1193 -536 156 80
703 238 1216 350 2066 451 3057 59 3688 -1456 615 -1475 365 -1886 -1215
-1998 -1195 -84 -3286 -490 -3755 -729 -1288 -657 -1887 -1629 -1860 -3014 24
-1283 364 -1945 1329 -2593 1465 -985 2933 -853 4799 430 708 487 847 471
1154 -135 256 -506 540 -680 1001 -614 507 72 502 26 467 4291 -39 4805 -126
5418 -881 6225 -1022 1094 -2999 1600 -4436 1138z m3394 -6417 c825 -668 285
-2226 -1100 -3172 -1841 -1258 -3793 -829 -3960 870 -123 1259 631 1900 2568
2185 734 108 1357 217 1383 244 124 123 911 33 1109 -127z M292844 107019
c-1261 -506 -1976 -1124 -2800 -2419 -453 -714 -480 -796 -556 -1700 -43 -522
-106 -1098 -139 -1279 -51 -284 56 -1650 212 -2698 27 -180 175 -473 330 -650
155 -178 361 -478 458 -667 1018 -1988 4257 -3001 6912 -2162 900 284 1172
510 1172 973 0 653 -506 811 -1549 484 -2540 -795 -4880 336 -5584 2700 -489
1642 -509 1634 3756 1656 1818 9 3408 50 3534 90 420 133 537 642 316 1372
-106 347 -223 856 -261 1131 -99 721 -490 1374 -1246 2081 -1424 1332 -3007
1710 -4555 1088z m2435 -1418 c1374 -624 2345 -2457 1521 -2872 -407 -205
-5134 -180 -5343 28 -258 259 -195 852 147 1368 929 1403 2472 2022 3675 1476z
M334311 107192 c-1493 -293 -2628 -1225 -3393 -2785 -568 -1157 -568 -1157
-568 -3107 0 -1950 0 -1950 491 -2950 1102 -2244 3130 -3391 5659 -3203 1653
124 2800 617 2800 1205 0 730 -355 827 -1767 486 -2138 -516 -3485 -94 -4686
1465 -743 966 -992 2172 -560 2706 187 231 187 231 3665 243 4369 15 4276 -40
3692 2212 -697 2687 -2876 4210 -5333 3728z m1746 -1539 c646 -269 1240 -852
1601 -1569 720 -1429 625 -1484 -2558 -1484 -2733 0 -2900 35 -2900 609 0
1571 2363 3069 3857 2444z M396129 106970 c-451 -187 -1001 -502 -1222 -702
-666 -601 -1120 -592 -1256 26 -174 792 -1290 1029 -1563 333 -165 -420 -129
-10464 38 -10813 296 -618 1116 -599 1416 33 135 285 158 861 158 3962 0 4206
10 4260 885 4760 256 146 588 386 738 534 615 605 1964 845 2730 485 1186
-558 1229 -875 1246 -9363 2 -775 684 -1088 1270 -584 281 242 281 242 281
4825 0 5145 52 4765 -783 5694 -1020 1134 -2444 1427 -3938 810z M436090
107060 c-1305 -468 -2221 -1182 -2690 -2097 -173 -337 -404 -778 -512 -981
-320 -596 -470 -3059 -256 -4213 260 -1402 1237 -3031 2167 -3618 1050 -662
2190 -995 3401 -993 1916 3 3400 542 3400 1235 0 599 -526 736 -1700 441
-1904 -479 -3581 -49 -4602 1178 -627 754 -753 999 -889 1733 -150 811 -138
997 76 1262 186 229 186 229 3647 248 3880 20 3899 24 4026 701 82 439 -363
2200 -706 2794 -1183 2045 -3418 3007 -5362 2310z m2081 -1376 c1385 -519
2551 -2407 1807 -2928 -240 -168 -4994 -238 -5247 -77 -875 556 274 2402 1869
3003 702 265 867 265 1571 2z M88350 106999 c-990 -34 -1814 -69 -1830 -80
-151 -96 -305 -746 -226 -955 144 -377 263 -410 1671 -464 1924 -73 1724 500
1757 -5022 28 -4595 28 -4595 309 -4837 354 -304 584 -304 938 0 281 241 281
241 331 5175 28 2714 22 5134 -12 5378 -74 530 -454 917 -869 886 -148 -12
-1079 -48 -2069 -81z M270545 106855 c-296 -297 -341 -951 -80 -1168 114 -94
577 -152 1496 -187 1101 -41 1363 -81 1511 -228 164 -165 182 -537 228 -4760
53 -4852 44 -4768 523 -5024 309 -165 762 -6 935 328 223 430 216 10450 -7
10882 -193 373 -325 394 -1935 299 -796 -46 -1560 -42 -1780 9 -560 130 -620
119 -891 -151z M413629 106738 c-252 -252 -290 -536 -114 -870 181 -344 266
-365 1517 -366 1032 -2 1438 -68 1668 -274 27 -24 73 -2129 100 -4676 47
-4375 61 -4643 240 -4842 352 -388 1073 -249 1344 258 159 300 165 10062 5
10519 -171 491 -313 519 -2508 499 -1963 -18 -2029 -25 -2252 -248z M86503
85803 c-368 -368 -382 -1037 -30 -1428 150 -167 9236 -175 188137 -175 187979
0 187979 0 188257 239 397 342 397 980 0 1322 -278 239 -278 239 -188223 239
-187004 0 -187945 -1 -188141 -197z"/>
</g>
<g transform="translate(0.000000,3264.000000) scale(0.010000,-0.010000)"
fill="#295D8B" stroke="none">
<path d="M403200 274107 c-247 -169 -607 -331 -800 -361 -192 -30 -509 -96
-704 -148 l-353 -93 -797 -751 c-438 -413 -841 -752 -896 -753 -55 0 -446
-312 -869 -692 -423 -381 -873 -723 -1000 -762 -344 -105 -564 -329 -1004
-1024 l-398 -628 -414 -286 c-228 -157 -501 -381 -605 -497 -105 -117 -247
-212 -315 -212 -69 0 -418 -266 -777 -591 -358 -324 -743 -619 -855 -655 -112
-35 -293 -211 -404 -389 -110 -179 -371 -484 -580 -679 -445 -415 -1026 -1095
-1351 -1582 -263 -395 -802 -795 -1528 -1136 l-500 -234 -900 -1024 c-495
-563 -1269 -1414 -1720 -1892 l-821 -868 -479 -243 c-264 -133 -665 -426 -891
-650 -225 -224 -518 -503 -650 -620 -131 -117 -406 -415 -609 -661 l-370 -448
-353 -168 -352 -167 -292 -422 c-361 -521 -657 -793 -1125 -1034 l-361 -187
-515 -622 c-283 -342 -603 -670 -711 -728 -109 -58 -302 -260 -431 -449 -326
-479 -1319 -1506 -2026 -2095 -327 -272 -819 -736 -1094 -1033 -1388 -1497
-2679 -2692 -3400 -3148 -220 -139 -620 -485 -889 -769 -269 -284 -622 -584
-784 -668 l-295 -152 -200 -453 -200 -452 -674 -666 c-1503 -1485 -2487 -2395
-3008 -2783 -595 -443 -1038 -892 -1394 -1412 l-227 -330 -373 -149 -374 -150
-315 -448 -316 -448 -257 -97 c-142 -54 -405 -211 -585 -348 -278 -212 -659
-336 -659 -214 0 20 -51 279 -113 575 l-114 539 -22 3400 c-12 1870 -33 4503
-47 5850 -14 1348 -15 2495 -3 2550 13 55 17 217 11 359 l-12 260 -237 276
c-131 152 -290 452 -355 666 l-116 390 -221 142 -221 142 -1000 129 -1000 130
-12450 -5 -12450 -6 -725 -221 -725 -220 0 -106 c0 -58 -157 -263 -348 -454
l-349 -349 -103 -384 -104 -384 -7 -19733 c-4 -10852 -38 -20407 -76 -21232
l-68 -1500 -138 -250 c-76 -137 -527 -677 -1001 -1200 -475 -522 -985 -1130
-1135 -1350 -149 -220 -575 -647 -946 -949 -686 -559 -2729 -2588 -3944 -3919
-1003 -1099 -2074 -2082 -2268 -2082 -44 0 -414 -344 -821 -765 -1448 -1492
-2219 -2235 -2321 -2235 -56 0 -349 -191 -650 -425 -301 -234 -687 -492 -859
-575 l-312 -150 -201 -418 -200 -417 -677 -647 c-372 -356 -844 -774 -1049
-929 -205 -155 -764 -673 -1242 -1151 -478 -479 -999 -947 -1158 -1041 -159
-93 -398 -338 -531 -544 -133 -206 -467 -722 -742 -1148 -275 -426 -826 -1149
-1225 -1606 l-724 -831 -145 -691 -146 -691 46 -493 c25 -271 90 -822 145
-1224 l99 -731 295 -619 c162 -340 348 -844 413 -1119 l117 -500 323 -300
c177 -165 508 -530 735 -812 l413 -511 677 -369 c372 -203 818 -458 991 -566
l314 -197 1288 -62 1287 -62 698 122 698 121 550 281 c303 155 806 401 1118
546 l566 265 599 641 c330 352 678 774 775 939 97 164 293 356 435 426 142 71
393 250 558 400 l300 271 428 113 428 113 222 471 222 470 448 226 449 226
178 347 178 347 286 148 c454 235 1005 825 1204 1290 l184 428 717 619 717
619 180 0 179 0 590 636 c325 350 810 915 1078 1255 l488 618 662 467 c1132
800 2765 2253 3101 2758 729 1096 2364 2566 2855 2566 81 0 273 168 427 373
153 205 549 648 879 985 330 337 1095 1120 1700 1740 605 621 1340 1307 1634
1525 293 218 1153 1011 1910 1762 757 751 1702 1658 2100 2015 398 358 797
774 887 925 89 151 254 304 366 339 111 35 1148 1019 2303 2187 1155 1167
2393 2364 2750 2660 358 295 1393 1265 2300 2155 908 890 1898 1846 2200 2125
303 279 798 736 1100 1017 303 280 699 626 882 768 183 142 473 465 646 716
173 252 473 601 668 777 195 175 505 454 690 619 185 165 488 372 674 460 186
88 462 320 614 516 551 710 3100 3187 4076 3961 550 436 1142 980 1316 1209
363 478 1758 1920 2145 2216 143 110 309 292 368 406 59 113 279 293 489 400
501 254 933 635 1882 1655 429 461 1100 1081 1490 1376 391 296 958 793 1260
1104 303 311 798 795 1100 1074 303 279 856 835 1231 1236 745 798 1747 1640
2224 1870 l306 147 291 466 c160 256 464 620 675 808 212 188 497 534 635 769
l249 426 1009 932 c555 512 1133 1021 1285 1131 153 110 761 624 1352 1142
592 518 1248 1025 1459 1127 211 102 384 226 384 275 0 265 3015 3368 3929
4044 883 652 3582 3299 3805 3730 l159 309 437 256 c240 140 497 329 571 419
75 89 307 250 516 357 l380 194 192 373 c105 206 333 478 506 606 174 127 365
340 425 471 60 132 275 355 479 496 204 142 431 370 505 508 153 286 1675
1592 2059 1767 l253 115 186 364 c102 201 408 631 680 957 l495 592 637 336
c350 185 800 423 1000 529 l364 193 686 -115 686 -115 350 -239 c193 -131 575
-420 850 -641 275 -221 663 -516 861 -655 l362 -254 273 -501 273 -502 266
-96 c146 -53 363 -146 483 -207 l218 -111 307 -576 306 -575 326 -157 c422
-203 1893 -1634 2052 -1996 l123 -280 347 -145 347 -145 228 -312 c125 -171
453 -457 728 -637 678 -442 1723 -1408 1908 -1766 83 -160 365 -445 627 -634
262 -188 533 -448 602 -577 70 -130 315 -387 545 -571 231 -185 585 -545 787
-802 l367 -465 416 -125 415 -124 166 -311 c92 -171 285 -427 429 -569 616
-605 1310 -1207 1391 -1207 48 0 296 -293 551 -650 255 -357 501 -650 546
-650 46 0 211 -139 367 -309 316 -345 1107 -972 1854 -1470 l494 -329 246
-538 247 -539 525 -297 525 -296 378 -461 c207 -254 434 -461 503 -461 69 0
302 -151 518 -335 216 -183 494 -387 618 -453 123 -65 311 -286 417 -490 206
-400 760 -974 2108 -2185 468 -420 985 -886 1150 -1036 165 -150 502 -398 750
-551 248 -154 655 -450 906 -658 l456 -378 224 -432 c322 -619 534 -846 952
-1021 l369 -154 137 -327 c76 -181 117 -362 92 -403 -26 -41 16 -51 92 -22
358 138 1492 -824 1900 -1613 l178 -344 422 -205 422 -205 365 -479 364 -478
636 -424 635 -424 263 -423 c145 -232 379 -497 521 -590 141 -93 376 -371 521
-619 145 -248 299 -451 341 -451 42 0 435 -326 874 -725 883 -802 1569 -1376
2173 -1816 220 -160 756 -655 1191 -1100 l792 -809 184 -407 184 -408 491
-267 c540 -294 2093 -1688 2565 -2302 385 -501 909 -1036 1387 -1416 208 -165
772 -637 1254 -1050 482 -412 1017 -826 1189 -918 l313 -168 216 -462 217
-461 662 -670 c364 -369 762 -748 884 -843 123 -94 250 -297 284 -450 33 -153
77 -332 97 -398 20 -66 224 -170 453 -232 l417 -112 238 -238 c130 -130 437
-375 682 -543 244 -168 541 -442 659 -608 119 -166 538 -559 932 -872 1026
-815 1659 -1420 1926 -1842 128 -202 358 -442 511 -533 154 -91 392 -318 529
-503 276 -372 1270 -1199 3210 -2672 l560 -425 157 -350 c225 -499 2410 -2691
3396 -3405 228 -165 477 -431 555 -591 l141 -291 308 -108 309 -107 657 -676
c361 -371 804 -779 984 -906 179 -128 393 -361 474 -518 l148 -287 542 -359
c297 -198 617 -481 711 -631 93 -149 356 -456 584 -682 499 -496 1151 -1273
1385 -1653 l171 -278 404 -206 404 -206 261 -395 261 -394 527 -298 c290 -163
797 -547 1127 -853 l601 -556 369 -932 369 -933 -2 -1192 c-8 -4554 113
-22269 187 -27293 l89 -6100 -106 -2300 -106 -2300 1 -20800 1 -20800 116
-630 116 -630 -62 -420 -63 -420 108 -478 c60 -263 150 -878 200 -1366 l92
-888 548 -548 548 -548 828 -275 c455 -152 965 -354 1134 -449 l306 -173 600
-16 600 -17 984 207 c2230 471 2206 460 2706 1289 l340 562 113 750 c61 413
179 983 261 1269 81 285 172 780 202 1100 30 319 49 16609 43 36200 l-12
35618 114 1032 c116 1059 418 2191 630 2363 65 53 389 118 719 144 l600 47
1028 508 c566 280 1308 580 1650 667 l622 157 200 270 c110 149 364 460 565
692 l365 423 176 530 c97 291 297 800 444 1130 148 330 301 844 340 1142 39
299 118 630 175 736 l103 193 -11 915 c-7 503 -52 1086 -100 1295 l-89 381
-546 719 c-300 396 -603 899 -673 1119 -70 220 -256 548 -413 728 -156 180
-373 501 -482 714 l-197 386 -292 102 c-160 56 -376 222 -478 369 -380 544
-774 965 -1027 1097 -143 75 -597 453 -1010 842 -895 843 -1421 1314 -1920
1722 -204 166 -396 382 -427 479 l-56 177 -446 223 c-246 122 -473 265 -505
317 -32 52 -324 275 -648 495 l-590 401 -320 474 c-459 677 -1173 1432 -1638
1731 -220 142 -533 450 -696 686 l-295 427 -505 323 c-277 178 -639 493 -804
700 -165 207 -449 519 -631 692 -1142 1088 -1723 1680 -2119 2162 -248 300
-638 751 -867 1002 -230 250 -449 581 -488 734 l-70 278 -262 165 c-145 91
-411 291 -591 445 -181 153 -406 279 -500 279 -95 1 -409 181 -699 401 -290
219 -709 514 -932 655 -452 285 -2626 2447 -3161 3144 -368 479 -1680 1700
-1827 1700 -48 0 -401 288 -784 640 l-697 639 -308 68 -307 67 -388 468 c-213
258 -428 542 -478 632 -103 185 -1584 1836 -1891 2108 -635 561 -2679 2513
-3851 3678 -1840 1828 -3638 3400 -3888 3400 -53 0 -200 137 -328 304 -491
641 -1302 1402 -1727 1619 l-442 227 -782 854 c-430 470 -1277 1326 -1882
1903 -605 577 -2000 1970 -3100 3096 -2405 2461 -3218 3258 -3550 3476 -591
388 -1519 1279 -1847 1774 l-355 535 -596 453 c-328 249 -776 566 -996 705
-220 139 -466 380 -547 536 -80 155 -332 406 -559 556 -228 151 -499 418 -603
594 -159 270 -856 938 -3236 3101 -171 155 -423 350 -561 432 -137 83 -385
350 -550 596 -165 245 -399 511 -520 591 -122 81 -340 351 -487 601 l-266 454
-300 155 c-165 85 -486 325 -713 532 -228 207 -741 628 -1140 935 -741 568
-1233 1104 -1888 2055 l-368 535 -747 465 c-749 467 -2321 1758 -2321 1906 0
43 -225 336 -500 650 -275 315 -500 603 -500 641 0 165 -489 589 -945 818
-272 137 -654 410 -850 606 -195 197 -490 440 -655 540 -165 101 -591 504
-947 894 -357 391 -1032 1109 -1500 1595 l-853 883 -625 406 c-344 222 -625
439 -625 481 0 116 -1518 1622 -1853 1837 -163 105 -612 532 -997 949 -806
873 -1359 1420 -2643 2610 -1238 1147 -1778 1687 -2083 2081 -141 182 -374
391 -517 466 -398 205 -1575 1450 -1760 1861 l-165 364 -468 212 -468 212
-184 311 -184 311 -616 276 -615 277 -501 547 c-275 301 -607 747 -738 990
l-237 442 -474 367 -473 367 -463 70 -463 69 -410 297 c-582 422 -1306 623
-2638 734 l-700 59 -450 -306z"/>
</g>
</svg>
